<svg width="24" height="26" viewBox="0 0 24 26" fill="none" xmlns="http://www.w3.org/2000/svg">
<g clip-path="url(#clip0_15_3)">
<path d="M15.9214 12.0344C15.7242 11.7978 15.4773 11.6075 15.1983 11.477C14.9193 11.3465 14.615 11.2791 14.307 11.2795H2.97356L2.94412 11.0334C2.88387 10.522 2.63806 10.0504 2.25329 9.70819C1.86853 9.36593 1.37156 9.17675 0.856598 9.17651H0.70098C0.515069 9.17651 0.336772 9.25037 0.205312 9.38183C0.0738531 9.51329 0 9.69158 0 9.87749C0 10.0634 0.0738531 10.2417 0.205312 10.3732C0.336772 10.5046 0.515069 10.5785 0.70098 10.5785H0.856598C1.02829 10.5785 1.19401 10.6415 1.32231 10.7556C1.45061 10.8697 1.53258 11.0269 1.55267 11.1974L2.51722 19.3989C2.61736 20.2519 3.02717 21.0384 3.66887 21.6091C4.31057 22.1799 5.13949 22.4952 5.99829 22.4951H13.3186C13.5045 22.4951 13.6828 22.4213 13.8143 22.2898C13.9458 22.1584 14.0196 21.9801 14.0196 21.7942C14.0196 21.6082 13.9458 21.43 13.8143 21.2985C13.6828 21.167 13.5045 21.0932 13.3186 21.0932H5.99829C5.56442 21.092 5.14155 20.9566 4.78765 20.7056C4.43375 20.4546 4.16615 20.1003 4.02152 19.6912H12.3772C13.199 19.6913 13.9946 19.4026 14.6251 18.8756C15.2557 18.3486 15.681 17.6168 15.8267 16.8081L16.377 13.756C16.4319 13.4532 16.4196 13.142 16.3408 12.8445C16.2621 12.547 16.1189 12.2704 15.9214 12.0344ZM15.001 13.5072L14.45 16.5592C14.3625 17.045 14.1069 17.4845 13.7279 17.8008C13.3489 18.1171 12.8708 18.29 12.3772 18.2893H3.79861L3.13899 12.6814H14.307C14.41 12.6808 14.5118 12.7029 14.6053 12.7461C14.6988 12.7893 14.7816 12.8526 14.8478 12.9314C14.9141 13.0102 14.9622 13.1027 14.9886 13.2022C15.0151 13.3017 15.0193 13.4058 15.001 13.5072Z" fill="white"/>
<path d="M4.90684 26.0001C5.68113 26.0001 6.3088 25.3724 6.3088 24.5981C6.3088 23.8238 5.68113 23.1962 4.90684 23.1962C4.13256 23.1962 3.50488 23.8238 3.50488 24.5981C3.50488 25.3724 4.13256 26.0001 4.90684 26.0001Z" fill="white"/>
<path d="M11.9166 26.0001C12.6909 26.0001 13.3186 25.3724 13.3186 24.5981C13.3186 23.8238 12.6909 23.1962 11.9166 23.1962C11.1423 23.1962 10.5146 23.8238 10.5146 24.5981C10.5146 25.3724 11.1423 26.0001 11.9166 26.0001Z" fill="white"/>
</g>
<path d="M17.4773 11.4034V5.77841H18.4318V11.4034H17.4773ZM15.142 9.06818V8.11364H20.767V9.06818H15.142Z" fill="white"/>
<defs>
<clipPath id="clip0_15_3">
<rect width="16.8235" height="16.8235" fill="white" transform="translate(0 9.17651)"/>
</clipPath>
</defs>
</svg>
