<svg width="41" height="41" viewBox="0 0 41 41" fill="none" xmlns="http://www.w3.org/2000/svg">
<g clip-path="url(#clip0_24_353)">
<path d="M39.7546 16.5552C37.105 12.2399 31.078 5 20.5 5C9.92203 5 3.89503 12.2399 1.2454 16.5552C0.426303 17.88 -0.00756836 19.4068 -0.00756836 20.9644C-0.00756836 22.522 0.426303 24.0488 1.2454 25.3736C3.89503 29.6888 9.92203 36.9287 20.5 36.9287C31.078 36.9287 37.105 29.6888 39.7546 25.3736C40.5737 24.0488 41.0076 22.522 41.0076 20.9644C41.0076 19.4068 40.5737 17.88 39.7546 16.5552ZM36.8419 23.585C34.5664 27.2852 29.4158 33.5121 20.5 33.5121C11.5842 33.5121 6.43361 27.2852 4.15811 23.585C3.67147 22.7975 3.4137 21.8901 3.4137 20.9644C3.4137 20.0387 3.67147 19.1313 4.15811 18.3438C6.43361 14.6435 11.5842 8.41667 20.5 8.41667C29.4158 8.41667 34.5664 14.6367 36.8419 18.3438C37.3286 19.1313 37.5863 20.0387 37.5863 20.9644C37.5863 21.8901 37.3286 22.7975 36.8419 23.585Z" fill="#FFB73B"/>
<rect x="7" y="19" width="26" height="4" rx="2" fill="#FFB73B"/>
</g>
<defs>
<clipPath id="clip0_24_353">
<rect width="41" height="41" fill="white"/>
</clipPath>
</defs>
</svg>
