<svg width="41" height="41" viewBox="0 0 41 41" fill="none" xmlns="http://www.w3.org/2000/svg">
<g clip-path="url(#clip0_24_347)">
<path d="M39.7546 16.0908C37.105 11.7756 31.078 4.53564 20.5 4.53564C9.92203 4.53564 3.89503 11.7756 1.2454 16.0908C0.426303 17.4156 -0.00756836 18.9424 -0.00756836 20.5C-0.00756836 22.0576 0.426303 23.5844 1.2454 24.9092C3.89503 29.2245 9.92203 36.4644 20.5 36.4644C31.078 36.4644 37.105 29.2245 39.7546 24.9092C40.5737 23.5844 41.0076 22.0576 41.0076 20.5C41.0076 18.9424 40.5737 17.4156 39.7546 16.0908ZM36.8419 23.1206C34.5664 26.8209 29.4158 33.0477 20.5 33.0477C11.5842 33.0477 6.43361 26.8209 4.15811 23.1206C3.67147 22.3331 3.4137 21.4257 3.4137 20.5C3.4137 19.5743 3.67147 18.6669 4.15811 17.8794C6.43361 14.1792 11.5842 7.95231 20.5 7.95231C29.4158 7.95231 34.5664 14.1724 36.8419 17.8794C37.3286 18.6669 37.5863 19.5743 37.5863 20.5C37.5863 21.4257 37.3286 22.3331 36.8419 23.1206Z" fill="#FFB73B"/>
<path d="M20.5002 11.9583C18.8108 11.9583 17.1593 12.4593 15.7547 13.3978C14.35 14.3364 13.2552 15.6704 12.6087 17.2312C11.9622 18.792 11.793 20.5095 12.1226 22.1664C12.4522 23.8233 13.2657 25.3453 14.4603 26.5398C15.6549 27.7344 17.1768 28.5479 18.8338 28.8775C20.4907 29.2071 22.2081 29.0379 23.7689 28.3915C25.3297 27.745 26.6637 26.6501 27.6023 25.2455C28.5409 23.8408 29.0418 22.1894 29.0418 20.5C29.0391 18.2354 28.1383 16.0644 26.537 14.4631C24.9358 12.8618 22.7647 11.961 20.5002 11.9583ZM20.5002 25.625C19.4865 25.625 18.4957 25.3244 17.6529 24.7613C16.8101 24.1981 16.1532 23.3977 15.7653 22.4612C15.3774 21.5248 15.2759 20.4943 15.4736 19.5001C15.6714 18.506 16.1595 17.5928 16.8762 16.8761C17.593 16.1593 18.5062 15.6712 19.5003 15.4735C20.4945 15.2757 21.5249 15.3772 22.4614 15.7651C23.3979 16.153 24.1983 16.8099 24.7614 17.6527C25.3246 18.4955 25.6252 19.4864 25.6252 20.5C25.6252 21.8592 25.0852 23.1628 24.1241 24.1239C23.163 25.085 21.8594 25.625 20.5002 25.625Z" fill="#FFB73B"/>
</g>
<defs>
<clipPath id="clip0_24_347">
<rect width="41" height="41" fill="white"/>
</clipPath>
</defs>
</svg>
